<svg width="363" height="218" viewBox="0 0 363 218" fill="none" xmlns="http://www.w3.org/2000/svg">
    <g clip-path="url(#clip0_2_3197)">
        <path fill-rule="evenodd" clip-rule="evenodd"
            d="M303.736 147.432V143.114C303.736 125.375 289.448 110.892 271.948 110.892C254.449 110.892 240.16 125.375 240.16 143.114V147.432H122.119V143.114C122.119 125.375 107.83 110.892 90.3307 110.892C72.8309 110.892 58.5427 125.375 58.5427 143.114V146.369L57.2318 145.838C39.5354 139.061 30.1629 134.41 29.2453 131.952C27.8689 128.165 33.44 88.6354 34.5542 80.7294L34.6198 80.3972L62.5408 56.0148L61.0988 48.6403L61.9509 48.3745C69.095 46.1821 90.6584 41.9966 121.07 41.9966C135.489 41.9966 150.695 42.9267 166.229 44.7205C208.503 49.6368 231.771 75.4144 235.441 79.7328C235.572 79.7328 235.769 79.7328 235.966 79.7328C244.748 79.7328 290.431 80.8622 327.332 102.521L327.463 102.587L327.528 102.654C334.803 109.762 334.672 137.799 333.296 145.771L333.165 146.568L318.549 147.432H303.736Z"
            fill="#CA0928" />
        <path
            d="M121.07 42.9931C134.047 42.9931 149.122 43.7239 166.098 45.717C211.322 50.9656 234.917 80.7958 234.917 80.7958C234.917 80.7958 235.245 80.7958 235.9 80.7958C243.175 80.7958 289.71 81.6595 326.807 103.451C333.361 109.895 333.82 136.669 332.247 145.638L318.418 146.502H304.654V143.18C304.654 124.844 289.972 109.962 271.883 109.962C253.793 109.962 239.112 124.844 239.112 143.18V146.502H123.102V143.18C123.102 124.844 108.42 109.962 90.3307 109.962C72.241 109.962 57.5595 124.844 57.5595 143.18V145.04C49.3667 141.918 31.2115 134.61 30.1628 131.753C28.7865 128.032 35.5373 80.9951 35.5373 80.9951L63.5894 56.4798L62.213 49.4375C62.213 49.3711 82.7278 42.9931 121.07 42.9931ZM121.07 41C82.8588 41 62.5407 47.2451 61.6887 47.5108L59.9846 48.0423L60.3123 49.7697L61.4921 55.6826L34.292 79.4006L33.7021 79.8657L33.571 80.5965C33.571 80.7293 31.8669 92.4887 30.3595 104.647C27.279 129.561 27.9344 131.487 28.2621 132.351C28.7209 133.547 29.7696 136.404 56.773 146.768L59.4602 147.764V143.047C59.4602 125.84 73.2897 111.822 90.2651 111.822C107.241 111.822 121.07 125.84 121.07 143.047V148.362H241.078V143.047C241.078 125.84 254.907 111.822 271.883 111.822C288.858 111.822 302.688 125.84 302.688 143.047V148.362H318.549L332.378 147.499L333.951 147.432L334.213 145.904C335.131 140.722 335.262 131.421 334.541 123.315C333.886 115.742 332.247 105.909 328.184 101.923L327.987 101.723L327.79 101.591C311.995 92.2894 292.725 85.6457 270.506 81.8588C253.203 78.8691 239.636 78.6698 235.9 78.6698H235.835C233.803 76.2781 227.838 69.8337 217.941 62.9906C202.736 52.4936 184.843 45.7835 166.36 43.591C150.761 41.9301 135.555 41 121.07 41Z"
            fill="#0F1217" />
        <path
            d="M34.3577 89.6984C34.3577 89.6984 55.069 90.6285 57.0353 91.3593C59.0016 92.0901 59.3948 93.5517 57.2975 95.6777C55.2001 97.8037 50.2845 101.391 50.2845 101.391L40.2565 101.126C40.2565 101.126 36.9794 97.8037 34.6854 97.0729L33.2435 96.6078L34.3577 89.6984ZM32.7191 87.6388L32.457 89.4326L31.3427 96.2756L31.0806 98.003L32.7191 98.5345L34.1611 98.9996C35.4719 99.3982 37.7659 101.391 38.8801 102.521L39.47 103.119H40.2565L50.2845 103.318H50.9399L51.4642 102.919C51.6608 102.786 56.511 99.1989 58.6739 97.0064C60.2469 95.412 60.9023 93.8175 60.5746 92.2894C60.378 91.4922 59.7881 90.1634 57.6907 89.3662C55.6589 88.6354 40.7808 87.9046 34.4232 87.5724L32.7191 87.6388Z"
            fill="#0F1217" />
        <path fill-rule="evenodd" clip-rule="evenodd"
            d="M97.6061 48.9724C97.6061 48.9724 147.09 44.4547 184.384 55.2839C216.696 64.6515 225.741 81.1943 225.741 81.1943L77.3535 74.9493L97.6061 48.9724Z"
            fill="#0F1217" />
        <path
            d="M90.3307 127.169C98.9823 127.169 106.061 134.344 106.061 143.114C106.061 151.883 98.9823 159.059 90.3307 159.059C81.6791 159.059 74.6005 151.883 74.6005 143.114C74.6005 134.344 81.6791 127.169 90.3307 127.169ZM90.3307 116.539C75.8458 116.539 64.1138 128.431 64.1138 143.114C64.1138 157.796 75.8458 169.688 90.3307 169.688C104.816 169.688 116.548 157.796 116.548 143.114C116.548 128.431 104.816 116.539 90.3307 116.539Z"
            fill="#0F1217" />
        <path
            d="M271.948 128.165C280.6 128.165 287.678 135.341 287.678 144.11C287.678 152.88 280.6 160.055 271.948 160.055C263.297 160.055 256.218 152.88 256.218 144.11C256.218 135.341 263.231 128.165 271.948 128.165ZM271.948 117.535C257.464 117.535 245.731 129.428 245.731 144.11C245.731 158.793 257.464 170.685 271.948 170.685C286.433 170.685 298.165 158.793 298.165 144.11C298.165 129.428 286.368 117.535 271.948 117.535Z"
            fill="#0F1217" />
        <path fill-rule="evenodd" clip-rule="evenodd"
            d="M63.5893 56.4134L39.4697 76.1452L47.7281 76.2781L72.503 53.2909L62.2129 49.3711L63.5893 56.4134Z"
            fill="#0F1217" />
        <path
            d="M323.661 117.004C316.845 117.004 299.411 105.377 296.92 99.1324C296.134 97.1392 296.789 95.9434 297.51 95.279L297.641 95.1461L297.772 95.0797C303.409 92.3558 322.088 102.388 324.186 103.517L324.382 103.65L324.513 103.849C324.71 104.115 328.839 109.696 327.594 113.682C327.07 115.277 325.89 116.406 323.989 117.004L323.858 117.07L323.661 117.004ZM298.755 96.8071C298.559 97.0064 298.428 97.405 298.755 98.4016C300.918 103.849 317.435 114.878 323.53 115.011C324.71 114.612 325.431 113.948 325.693 113.084C326.48 110.626 324.12 106.773 323.006 105.245C315.469 101.125 302.491 95.3454 298.755 96.8071Z"
            fill="#0F1217" />
        <mask id="mask0_2_3197" style="mask-type:luminance" maskUnits="userSpaceOnUse" x="29" y="42"
            width="305" height="105">
            <path
                d="M326.807 103.384C286.499 79.6664 234.917 80.7294 234.917 80.7294C234.917 80.7294 211.322 50.9656 166.098 45.6506C98.9823 37.8775 62.2131 49.3711 62.2131 49.3711L63.5894 56.4134L35.5374 80.9287C35.5374 80.9287 28.7865 127.966 30.1629 131.687C31.2771 134.743 52.1195 142.914 59.1981 145.572V143.114C59.1981 125.707 73.1586 111.556 90.3307 111.556C107.503 111.556 121.463 125.707 121.463 143.114V146.436H240.816V143.114C240.816 125.707 254.776 111.556 271.948 111.556C289.12 111.556 303.081 125.707 303.081 143.114V146.436H318.483L332.313 145.572C333.82 136.669 333.361 109.895 326.807 103.384Z"
                fill="white" />
        </mask>
        <g mask="url(#mask0_2_3197)">
            <path
                d="M320.253 139.858H313.437C311.798 118.133 293.774 100.993 271.948 100.993C250.123 100.993 232.164 118.133 230.46 139.858H131.819C130.115 118.133 112.156 100.993 90.3307 100.993C71.5201 100.993 55.5933 113.749 50.481 131.155L29.573 123.98C29.573 123.98 29.573 129.428 29.7696 132.417C29.9007 134.41 41.0429 138.862 48.7113 141.719C48.7113 142.184 48.7113 142.649 48.7113 143.114V156.667H131.95V147.299H230.329V158.926H313.568V146.436H320.253L332.313 145.572L332.968 138.928L320.253 139.858Z"
                fill="#0F1217" />
        </g>
    </g>
    <defs>
        <clipPath id="clip0_2_3197">
            <rect width="307" height="135" fill="white" transform="translate(28 41)" />
        </clipPath>
    </defs>
</svg>