<svg xmlns="http://www.w3.org/2000/svg" width="109" height="20" viewBox="0 0 109 20" fill="none">
    <g clip-path="url(#clip0_415_3146)">
        <path
            d="M69.9369 19.774L65.8149 8.36157H68.0806L68.1352 8.50281L70.6193 15.7345L73.431 8.38982H74.6321L74.6594 8.44631L77.4438 15.7627L79.9825 8.38982H82.2482L78.1262 19.8305H76.9251L74.0588 12.2034L71.2199 19.8305H69.9915L69.9369 19.774ZM42.3115 19.8305V8.38982H43.5672L49.7911 15.678V8.38982H51.893V19.8305H50.6646L44.4135 12.5141V19.8305H42.3115ZM59.6183 10.226C61.6929 10.226 63.2489 11.8926 63.2489 14.096C63.2489 16.3559 61.7202 17.9943 59.6183 17.9943C57.5164 17.9943 55.9877 16.3559 55.9877 14.096C55.9877 11.8361 57.5164 10.226 59.6183 10.226ZM59.591 20C62.8395 20 65.4054 17.4011 65.4054 14.096C65.4054 10.7909 62.8667 8.19208 59.591 8.19208C56.3426 8.19208 53.8039 10.7909 53.8039 14.096C53.8039 17.4011 56.3699 20 59.591 20Z"
            fill="#CA0928" />
        <path
            d="M31.6108 19.8305V8.38983H39.6364V10.3672H33.7127V12.9944H39.1177V14.9435H33.7127V17.8531H39.6364V19.8305H31.6108ZM12.2567 13.3333V10.339H14.7408C15.86 10.339 16.5424 10.904 16.5424 11.8362C16.5424 12.7684 15.86 13.3051 14.7408 13.3051H12.2567V13.3333ZM16.1876 15.1412C17.7436 14.6893 18.699 13.4463 18.699 11.8644C18.699 9.83051 17.0884 8.41808 14.7954 8.38983H10.1548V19.8305H12.2567V15.3107H13.9219L16.8154 19.8023H19.2449L16.1876 15.1412ZM0 19.8305V8.38983H7.88906V10.3672H2.10193V12.9944H7.3977V14.9718H2.10193V19.8023H0V19.8305ZM21.1558 19.8305V8.38983H29.1813V10.3672H23.2577V12.9944H28.6627V14.9435H23.2577V17.8531H29.1813V19.8305H21.1558Z"
            fill="#CA0928" />
        <path
            d="M105.424 0L92.3484 13.5593V5.96045L84.6504 0H80.6649L80.6922 0.0282486L89.7278 7.0339V19.887V19.9153L89.7551 19.887L109 0.0282486V0H105.424Z"
            fill="#CA0928" />
    </g>
    <defs>
        <clipPath id="clip0_415_3146">
            <rect width="109" height="20" fill="white" />
        </clipPath>
    </defs>
    <script xmlns="" />
    <script xmlns="" />
</svg>